<svg xmlns="http://www.w3.org/2000/svg" width="166.30312mm" height="105.83332mm" viewBox="0 0 166.30311 105.83332"><path d="M0 0c-3.017 0-5.812-.941-8.11-2.546A14.12 14.12 0 0 1-16.222 0c-7.838 0-14.193-6.355-14.193-14.194 0-7.838 6.355-14.194 14.193-14.194 3.017 0 5.813.942 8.112 2.546A14.12 14.12 0 0 1 0-28.388c7.839 0 14.193 6.356 14.193 14.194C14.193-6.355 7.839 0 0 0" style="fill:#fff;fill-opacity:1;fill-rule:nonzero;stroke:none" transform="matrix(3.7281 0 0 -3.7281 113.39 0)"/><path d="M0 0a13.74 13.74 0 0 1-.795 1.626L-15.851-9.84l-5.37-4.088-2.098-1.325-6.83-4.31a14.081 14.081 0 0 1 3.389.209l3.96 3.588 1.579 1.432 4.928 3.328z" style="fill:#ed192d;fill-opacity:1;fill-rule:nonzero;stroke:none" transform="matrix(3.7281 0 0 -3.7281 162.267 32.77)"/><path d="m0 0-21.333-16.486a14.117 14.117 0 0 1 7.966-2.449C-5.535-18.935.815-12.584.815-4.75.815-3.085.527-1.486 0 0" style="fill:#ed192d;fill-opacity:1;fill-rule:nonzero;stroke:none" transform="matrix(3.7281 0 0 -3.7281 163.206 35.206)"/><path d="M0 0c-7.835 0-14.184-6.35-14.184-14.183 0-1.667.288-3.266.818-4.753L7.962-2.445A14.116 14.116 0 0 1 0 0" style="fill:#ed192d;fill-opacity:1;fill-rule:nonzero;stroke:none" transform="matrix(3.7281 0 0 -3.7281 52.94 .04)"/><path d="m0 0 4.805 3.167 10.027 6.609a14.05 14.05 0 0 1-1.836.829l-8.549-6.71L0 .401-6.049-3.65l-12.658-8.484c.401-.45.83-.876 1.285-1.272l11.465 8.823z" style="fill:#ed192d;fill-opacity:1;fill-rule:nonzero;stroke:none" transform="matrix(3.7281 0 0 -3.7281 83.154 42.804)"/><path d="m0 0 5.631 3.747 11.325 7.537c-.488.39-1.003.749-1.538 1.073L5.388 4.583 0 .407l-5.631-3.749-11.324-7.54a14.2 14.2 0 0 1 1.54-1.072l10.026 7.775z" style="fill:#ed192d;fill-opacity:1;fill-rule:nonzero;stroke:none" transform="matrix(3.7281 0 0 -3.7281 83.154 53.668)"/><path d="m0 0 6.049 4.049 12.658 8.48c-.401.451-.83.876-1.285 1.274L5.955 4.984 0 .406l-4.808-3.171-10.027-6.614a14.15 14.15 0 0 1 1.839-.829l8.547 6.713z" style="fill:#ed192d;fill-opacity:1;fill-rule:nonzero;stroke:none" transform="matrix(3.7281 0 0 -3.7281 83.154 64.506)"/><path d="m0 0 3.625 2.354L12.24 7.95c-.726.221-1.473.384-2.245.487L3.184 2.964 0 .406l-5.932-3.995-14.195-9.559a14.56 14.56 0 0 1 1.044-1.453l13.04 9.977z" style="fill:#ed192d;fill-opacity:1;fill-rule:nonzero;stroke:none" transform="matrix(3.7281 0 0 -3.7281 83.154 31.962)"/><path d="m0 0 2.094 1.32 6.828 4.307a14.373 14.373 0 0 1-3.368-.205L1.578 1.828 0 .403l-4.927-3.33-16.294-11.011c.232-.561.496-1.105.795-1.625L-5.367-4.089z" style="fill:#ed192d;fill-opacity:1;fill-rule:nonzero;stroke:none" transform="matrix(3.7281 0 0 -3.7281 83.154 21.105)"/><path d="m0 0 5.934 3.993 14.195 9.555c-.319.507-.668.992-1.045 1.453L6.043 5.027 0 .406-3.627-1.95l-8.613-5.597a13.946 13.946 0 0 1 2.242-.489l6.812 5.475z" style="fill:#ed192d;fill-opacity:1;fill-rule:nonzero;stroke:none" transform="matrix(3.7281 0 0 -3.7281 83.154 75.367)"/><path d="M0 0a4.075 4.075 0 0 1 4.074-4.074h4.449v2.205H4.27c-.619 0-1.163.303-1.502.765h5.769v2.207H2.768a1.86 1.86 0 0 0 1.502.766l4.296-.001v2.206H4.074A4.075 4.075 0 0 1 0 0" style="fill:#ed192d;fill-opacity:1;fill-rule:nonzero;stroke:none" transform="matrix(3.7281 0 0 -3.7281 34.426 52.681)"/><path d="M0 0a4.075 4.075 0 0 1 4.074-4.074h4.449v2.205H4.27c-.619 0-1.163.303-1.502.765h5.769v2.207H2.768a1.86 1.86 0 0 0 1.502.766l4.296-.001v2.206H4.074A4.075 4.075 0 0 1 0 0Z" style="fill:none;stroke:#ed192d;stroke-width:.83;stroke-linecap:butt;stroke-linejoin:miter;stroke-miterlimit:4;stroke-dasharray:none;stroke-opacity:1" transform="matrix(3.7281 0 0 -3.7281 34.426 52.681)"/><path d="M0 0H-5.568v-2.205H0a.766.766 0 0 0 0-1.532h-5.54v-2.204h.001v-2.202h2.511v2.202H0A2.971 2.971 0 0 1 0 0" style="fill:#ed192d;fill-opacity:1;fill-rule:nonzero;stroke:none" transform="matrix(3.7281 0 0 -3.7281 126.996 37.514)"/><path d="M0 0H-5.568v-2.205H0a.766.766 0 0 0 0-1.532h-5.54v-2.204h.001v-2.202h2.511v2.202H0A2.971 2.971 0 0 1 0 0Z" style="fill:none;stroke:#ed192d;stroke-width:.83;stroke-linecap:butt;stroke-linejoin:miter;stroke-miterlimit:4;stroke-dasharray:none;stroke-opacity:1" transform="matrix(3.7281 0 0 -3.7281 126.996 37.514)"/><path d="M0 0a.766.766 0 0 0-1.53 0v5.304h-2.207V0a.765.765 0 0 0-1.531 0v5.304h-2.207V0a2.972 2.972 0 0 1 2.972-2.972c.708 0 1.358.25 1.868.664a2.96 2.96 0 0 1 1.867-.664A2.974 2.974 0 0 1 2.206 0v5.304H0Z" style="fill:#ed192d;fill-opacity:1;fill-rule:nonzero;stroke:none" transform="matrix(3.7281 0 0 -3.7281 96.115 57.265)"/><path d="M0 0a.766.766 0 0 0-1.53 0v5.304h-2.207V0a.765.765 0 0 0-1.531 0v5.304h-2.207V0a2.972 2.972 0 0 1 2.972-2.972c.708 0 1.358.25 1.868.664a2.96 2.96 0 0 1 1.867-.664A2.974 2.974 0 0 1 2.206 0v5.304H0Z" style="fill:none;stroke:#ed192d;stroke-width:.83;stroke-linecap:butt;stroke-linejoin:miter;stroke-miterlimit:4;stroke-dasharray:none;stroke-opacity:1" transform="matrix(3.7281 0 0 -3.7281 96.115 57.265)"/><path d="M0 0a4.075 4.075 0 0 1 4.074-4.074h4.449v2.205H4.27c-.619 0-1.163.303-1.502.765h5.769v2.207H2.768a1.86 1.86 0 0 0 1.502.766l4.296-.001v2.206H4.074A4.075 4.075 0 0 1 0 0" style="fill:#fff;fill-opacity:1;fill-rule:nonzero;stroke:none" transform="matrix(3.7281 0 0 -3.7281 34.426 52.681)"/><path d="M0 0H-5.568v-2.205H0a.766.766 0 0 0 0-1.532h-5.54v-2.204h.001v-2.202h2.511v2.202H0A2.971 2.971 0 0 1 0 0" style="fill:#fff;fill-opacity:1;fill-rule:nonzero;stroke:none" transform="matrix(3.7281 0 0 -3.7281 126.996 37.514)"/><path d="M0 0a.766.766 0 0 0-1.53 0v5.304h-2.207V0a.765.765 0 0 0-1.531 0v5.304h-2.207V0a2.972 2.972 0 0 1 2.972-2.972c.708 0 1.358.25 1.868.664a2.96 2.96 0 0 1 1.867-.664A2.974 2.974 0 0 1 2.206 0v5.304H0Z" style="fill:#fff;fill-opacity:1;fill-rule:nonzero;stroke:none" transform="matrix(3.7281 0 0 -3.7281 96.115 57.265)"/></svg>